<svg width="32" height="32" viewBox="0 0 32 32" fill="none" xmlns="http://www.w3.org/2000/svg">
<g clip-path="url(#clip0_19_2)">
<path d="M67.8148 16C67.8148 12.2725 64.7621 8.57896 59.0972 5.74653C53.5032 2.94956 45.6924 1.18519 37 1.18519C28.3076 1.18519 20.4968 2.94956 14.9028 5.74653C9.23791 8.57896 6.18519 12.2725 6.18519 16C6.18519 19.7275 9.23791 23.421 14.9028 26.2535C20.4968 29.0504 28.3076 30.8148 37 30.8148V32C19.3269 32 5 24.8366 5 16C5 7.16344 19.3269 0 37 0C54.6731 0 69 7.16344 69 16C69 24.8366 54.6731 32 37 32V30.8148C45.6924 30.8148 53.5032 29.0504 59.0972 26.2535C64.7621 23.421 67.8148 19.7275 67.8148 16Z" fill="black"/>
<path d="M19.9473 18.7139V18.3868H22.5357V13.9637H19.9473V13.6365H22.8913V15.5565C23.1283 15.3669 23.4033 15.1536 23.7162 14.9165C24.0385 14.6795 24.3893 14.4567 24.7686 14.2481C25.1573 14.03 25.5603 13.8546 25.9775 13.7219C26.4042 13.5797 26.845 13.5085 27.3002 13.5085C28.0492 13.5085 28.6323 13.665 29.0495 13.9779C29.4762 14.2813 29.7748 14.6842 29.9455 15.1868C30.1256 15.6798 30.2157 16.2155 30.2157 16.7939V18.3868H32.6619V18.7139H27.5846V18.3868H29.8602V16.7939C29.8602 16.4336 29.8222 16.078 29.7464 15.7272C29.68 15.3764 29.552 15.0588 29.3624 14.7743C29.1822 14.4899 28.9215 14.2623 28.5802 14.0917C28.2483 13.921 27.8216 13.8357 27.3002 13.8357C26.845 13.8357 26.4042 13.9068 25.9775 14.049C25.5603 14.1912 25.1573 14.3714 24.7686 14.5894C24.3893 14.798 24.0385 15.0208 23.7162 15.2579C23.4033 15.4949 23.1283 15.7082 22.8913 15.8979V18.3868H25.1668V18.7139H19.9473Z" fill="black"/>
<path d="M12.9075 18.7138V18.3867H15.5101V11.6596H12.9075V11.3182H18.4399V11.6596H15.8657V18.3867H18.4399V18.7138H12.9075Z" fill="black"/>
<path d="M29.2674 16.7937C29.2674 16.4755 29.2336 16.1621 29.1667 15.8527L29.1644 15.8377C29.1121 15.5614 29.0128 15.3181 28.8692 15.1027L28.8611 15.0912V15.09C28.7461 14.9088 28.5723 14.75 28.3148 14.6212L28.3091 14.6189C28.0876 14.5051 27.7623 14.428 27.2998 14.428C26.909 14.428 26.5322 14.4875 26.1679 14.6085L26.169 14.6097C25.7865 14.7401 25.4165 14.9057 25.0591 15.1062L25.0544 15.1085C24.6961 15.3056 24.367 15.5153 24.0672 15.7358C23.8537 15.8976 23.6601 16.0489 23.4838 16.1872V17.7937H25.7593V19.3064H19.3542V19.1374H19.2952V19.1097H19.3542V18.7416H19.2952V18.7138H19.3542V17.7937H21.9433V14.5564H19.3542V13.0437H23.4838V14.3539C23.7073 14.195 23.9416 14.042 24.1875 13.8967L24.4827 13.7289C24.9045 13.4926 25.3429 13.3018 25.7975 13.1571C26.2829 12.9962 26.7845 12.9164 27.2998 12.9164C28.1229 12.9164 28.8492 13.0864 29.4051 13.5032H29.404C29.924 13.8764 30.2929 14.3749 30.5023 14.9835L30.5741 15.1965C30.7315 15.6994 30.8079 16.2329 30.8079 16.7937V17.7937H33.2547V19.3064H26.9919V17.7937H29.2674V16.7937Z" fill="black"/>
<path d="M19.0326 10.7255V12.2521H16.4585V17.7938H19.0326V19.3065H12.6391V19.3296H12.1772V19.3019H12.315V18.7417H12.1772V18.7139H12.315V17.7938H14.918V12.2521H12.315V10.7255H19.0326Z" fill="black"/>
</g>
<defs>
<clipPath id="clip0_19_2">
<rect width="32" height="32" fill="white"/>
</clipPath>
</defs>
</svg>
